<svg xmlns="http://www.w3.org/2000/svg" viewBox="0 0 64 64" role="img" aria-label="RaceOps">
  <rect width="64" height="64" rx="14" fill="#111827"></rect>

  <g fill="#FFC21B">
    <path d="M13 45V17h17.2c5.8 0 9.8 3.7 9.8 9.1 0 3.7-1.9 6.6-5.2 8l6.2 10.9h-8.2l-5.2-9.5h-7.2V45H13Zm7.4-15.7h8.8c2 0 3.2-1.1 3.2-2.9 0-1.7-1.2-2.8-3.2-2.8h-8.8v5.7Z"></path>
    <path d="M43.5 45.5c-5.1 0-8.7-3.6-8.7-8.8s3.6-8.8 8.7-8.8 8.7 3.6 8.7 8.8-3.6 8.8-8.7 8.8Zm0-6.1c1.6 0 2.8-1.1 2.8-2.7s-1.2-2.7-2.8-2.7-2.8 1.1-2.8 2.7 1.2 2.7 2.8 2.7Z"></path>
  </g>

  <g fill="#F9FAFB">
    <rect x="43" y="15" width="4" height="9" rx="1.5"></rect>
    <rect x="49" y="11" width="4" height="13" rx="1.5"></rect>
    <rect x="55" y="7" width="4" height="17" rx="1.5"></rect>
  </g>
</svg>